
<svg width="100" height="81" viewBox="0 0 100 81" fill="none" xmlns="http://www.w3.org/2000/svg">
<g filter="url(#filter0_d_12864_666)">
<path d="M40.8123 11.3812C41.3468 9.23767 43.5177 7.93325 45.6612 8.46769L96.1166 21.0476C98.2601 21.5821 99.5645 23.753 99.0301 25.8965L87.4178 72.4707C86.8834 74.6142 84.7125 75.9186 82.569 75.3842L32.1136 62.8042C29.9701 62.2698 28.6657 60.0989 29.2001 57.9554L40.8123 11.3812Z" fill="url(#paint0_linear_12864_666)" shape-rendering="crispEdges"/>
<path d="M41.0549 11.4417C41.556 9.43212 43.5912 8.20922 45.6007 8.71026L96.0561 21.2902C98.0657 21.7912 99.2885 23.8265 98.7875 25.836L87.1753 72.4102C86.6742 74.4198 84.639 75.6426 82.6294 75.1416L32.1741 62.5617C30.1645 62.0606 28.9416 60.0254 29.4427 58.0159L41.0549 11.4417Z" stroke="#EAEAEA" stroke-width="0.5" shape-rendering="crispEdges"/>
<circle cx="45.786" cy="14.167" r="1.5" transform="rotate(14 45.786 14.167)" fill="#E7ECFA"/>
<rect x="49.5449" y="13.5581" width="26" height="3" rx="1.5" transform="rotate(14 49.5449 13.5581)" fill="#E7ECFA"/>
<g clip-path="url(#clip0_12864_666)">
<rect x="42.7582" y="20.1113" width="52" height="26" rx="2" transform="rotate(14 42.7582 20.1113)" fill="#E7ECFA"/>
<circle cx="80.9024" cy="35.5024" r="3" transform="rotate(14 80.9024 35.5024)" fill="url(#paint1_linear_12864_666)"/>
<path d="M74.5631 46.3979C75.9337 45.681 77.6247 46.1238 78.4682 47.4203L84.983 57.4349L63.6364 52.1126L74.5631 46.3979Z" fill="url(#paint2_linear_12864_666)"/>
<path d="M54.0093 36.259C55.9352 35.0782 58.4561 35.7256 59.575 37.6881L68.488 53.3227L38.4088 45.8231L54.0093 36.259Z" fill="url(#paint3_linear_12864_666)"/>
</g>
<rect x="35.2585" y="50.1904" width="30" height="3" rx="1.5" transform="rotate(14 35.2585 50.1904)" fill="#E7ECFA"/>
<rect x="33.807" y="56.0122" width="44" height="3" rx="1.5" transform="rotate(14 33.807 56.0122)" fill="#E7ECFA"/>
</g>
<g filter="url(#filter1_d_12864_666)">
<path d="M1.49843 28.2087C0.670869 26.1605 1.66046 23.8291 3.70874 23.0016L51.9223 3.52203C53.9706 2.69447 56.3019 3.68406 57.1295 5.73234L75.1106 50.2372C75.9381 52.2854 74.9485 54.6168 72.9003 55.4443L24.6867 74.9239C22.6384 75.7514 20.3071 74.7618 19.4795 72.7136L1.49843 28.2087Z" fill="url(#paint4_linear_12864_666)" shape-rendering="crispEdges"/>
<path d="M1.73022 28.1151C0.954387 26.1948 1.88213 24.0092 3.80239 23.2334L52.0159 3.75383C53.9362 2.97799 56.1218 3.90573 56.8977 5.82599L74.8788 50.3308C75.6546 52.2511 74.7269 54.4367 72.8066 55.2125L24.5931 74.6921C22.6728 75.4679 20.4872 74.5402 19.7113 72.6199L1.73022 28.1151Z" stroke="#EAEAEA" stroke-width="0.5" shape-rendering="crispEdges"/>
<circle cx="7.15984" cy="27.5393" r="1.5" transform="rotate(-22 7.15984 27.5393)" fill="#E7ECFA"/>
<rect x="9.84302" y="24.8374" width="26" height="3" rx="1.5" transform="rotate(-22 9.84302 24.8374)" fill="#E7ECFA"/>
<g clip-path="url(#clip1_12864_666)">
<rect x="8.20398" y="34.1279" width="52" height="26" rx="2" transform="rotate(-22 8.20398 34.1279)" fill="#E7ECFA"/>
<circle cx="48.11" cy="24.1592" r="3" transform="rotate(-22 48.11 24.1592)" fill="url(#paint5_linear_12864_666)"/>
<path d="M49.3857 36.7001C50.0732 35.3145 51.7015 34.6788 53.1459 35.232L64.3029 39.5046L43.9049 47.746L49.3857 36.7001Z" fill="url(#paint6_linear_12864_666)"/>
<path d="M26.7976 40.578C27.6617 38.4908 30.0816 37.5327 32.1403 38.4628L48.5408 45.8725L19.7981 57.4853L26.7976 40.578Z" fill="url(#paint7_linear_12864_666)"/>
</g>
<rect x="19.8168" y="62.8706" width="30" height="3" rx="1.5" transform="rotate(-22 19.8168 62.8706)" fill="#E7ECFA"/>
<rect x="22.0645" y="68.4336" width="44" height="3" rx="1.5" transform="rotate(-22 22.0645 68.4336)" fill="#E7ECFA"/>
</g>
<g filter="url(#filter2_d_12864_666)">
<rect x="20" y="11.5" width="60" height="56" rx="4" fill="url(#paint8_linear_12864_666)" shape-rendering="crispEdges"/>
<rect x="20.25" y="11.75" width="59.5" height="55.5" rx="3.75" stroke="#EAEAEA" stroke-width="0.5" shape-rendering="crispEdges"/>
<circle cx="25.5" cy="17" r="1.5" fill="#E7ECFA"/>
<rect x="29" y="15.5" width="26" height="3" rx="1.5" fill="#E7ECFA"/>
<g clip-path="url(#clip2_12864_666)">
<rect x="24" y="23.5" width="52" height="26" rx="2" fill="#E7ECFA"/>
<circle cx="64.7346" cy="29.2061" r="3" fill="url(#paint9_linear_12864_666)"/>
<path d="M61.2195 41.3116C62.376 40.2845 64.1239 40.305 65.256 41.359L74 49.5H52L61.2195 41.3116Z" fill="url(#paint10_linear_12864_666)"/>
<path d="M38.8234 36.4459C40.4064 34.8343 43.0091 34.8525 44.5694 36.4861L57 49.5H26L38.8234 36.4459Z" fill="url(#paint11_linear_12864_666)"/>
</g>
<rect x="24" y="54.5" width="30" height="3" rx="1.5" fill="#E7ECFA"/>
<rect x="24" y="60.5" width="44" height="3" rx="1.5" fill="#E7ECFA"/>
</g>
<defs>
<filter id="filter0_d_12864_666" x="25.2324" y="7.5" width="74.7654" height="72.8521" filterUnits="userSpaceOnUse" color-interpolation-filters="sRGB">
<feFlood flood-opacity="0" result="BackgroundImageFix"/>
<feColorMatrix in="SourceAlpha" type="matrix" values="0 0 0 0 0 0 0 0 0 0 0 0 0 0 0 0 0 0 127 0" result="hardAlpha"/>
<feMorphology radius="5" operator="erode" in="SourceAlpha" result="effect1_dropShadow_12864_666"/>
<feOffset dx="-2" dy="3"/>
<feGaussianBlur stdDeviation="3"/>
<feComposite in2="hardAlpha" operator="out"/>
<feColorMatrix type="matrix" values="0 0 0 0 0 0 0 0 0 0 0 0 0 0 0 0 0 0 0.05 0"/>
<feBlend mode="normal" in2="BackgroundImageFix" result="effect1_dropShadow_12864_666"/>
<feBlend mode="normal" in="SourceGraphic" in2="effect1_dropShadow_12864_666" result="shape"/>
</filter>
<filter id="filter1_d_12864_666" x="0" y="2.02344" width="79.609" height="78.3989" filterUnits="userSpaceOnUse" color-interpolation-filters="sRGB">
<feFlood flood-opacity="0" result="BackgroundImageFix"/>
<feColorMatrix in="SourceAlpha" type="matrix" values="0 0 0 0 0 0 0 0 0 0 0 0 0 0 0 0 0 0 127 0" result="hardAlpha"/>
<feMorphology radius="5" operator="erode" in="SourceAlpha" result="effect1_dropShadow_12864_666"/>
<feOffset dx="2" dy="3"/>
<feGaussianBlur stdDeviation="3"/>
<feComposite in2="hardAlpha" operator="out"/>
<feColorMatrix type="matrix" values="0 0 0 0 0 0 0 0 0 0 0 0 0 0 0 0 0 0 0.05 0"/>
<feBlend mode="normal" in2="BackgroundImageFix" result="effect1_dropShadow_12864_666"/>
<feBlend mode="normal" in="SourceGraphic" in2="effect1_dropShadow_12864_666" result="shape"/>
</filter>
<filter id="filter2_d_12864_666" x="17" y="11.5" width="66" height="63" filterUnits="userSpaceOnUse" color-interpolation-filters="sRGB">
<feFlood flood-opacity="0" result="BackgroundImageFix"/>
<feColorMatrix in="SourceAlpha" type="matrix" values="0 0 0 0 0 0 0 0 0 0 0 0 0 0 0 0 0 0 127 0" result="hardAlpha"/>
<feMorphology radius="5" operator="erode" in="SourceAlpha" result="effect1_dropShadow_12864_666"/>
<feOffset dy="4"/>
<feGaussianBlur stdDeviation="4"/>
<feComposite in2="hardAlpha" operator="out"/>
<feColorMatrix type="matrix" values="0 0 0 0 0 0 0 0 0 0 0 0 0 0 0 0 0 0 0.12 0"/>
<feBlend mode="normal" in2="BackgroundImageFix" result="effect1_dropShadow_12864_666"/>
<feBlend mode="normal" in="SourceGraphic" in2="effect1_dropShadow_12864_666" result="shape"/>
</filter>
<linearGradient id="paint0_linear_12864_666" x1="70.8889" y1="14.7577" x2="57.3413" y2="69.0942" gradientUnits="userSpaceOnUse">
<stop stop-color="white"/>
<stop offset="1" stop-color="white"/>
</linearGradient>
<linearGradient id="paint1_linear_12864_666" x1="80.9024" y1="32.5024" x2="80.9024" y2="38.5024" gradientUnits="userSpaceOnUse">
<stop stop-color="#F9ECB9"/>
<stop offset="1" stop-color="#FFD968"/>
</linearGradient>
<linearGradient id="paint2_linear_12864_666" x1="79.8663" y1="49.9755" x2="64.025" y2="52.8204" gradientUnits="userSpaceOnUse">
<stop stop-color="#69BB66"/>
<stop offset="1" stop-color="#BFDAB8"/>
</linearGradient>
<linearGradient id="paint3_linear_12864_666" x1="61.5553" y1="41.7002" x2="38.6387" y2="44.7482" gradientUnits="userSpaceOnUse">
<stop stop-color="#69BB66"/>
<stop offset="1" stop-color="#BFDAB8"/>
</linearGradient>
<linearGradient id="paint4_linear_12864_666" x1="27.8155" y1="13.2618" x2="48.7935" y2="65.1841" gradientUnits="userSpaceOnUse">
<stop stop-color="white"/>
<stop offset="1" stop-color="white"/>
</linearGradient>
<linearGradient id="paint5_linear_12864_666" x1="48.11" y1="21.1592" x2="48.11" y2="27.1592" gradientUnits="userSpaceOnUse">
<stop stop-color="#F9ECB9"/>
<stop offset="1" stop-color="#FFD968"/>
</linearGradient>
<linearGradient id="paint6_linear_12864_666" x1="55.779" y1="36.4773" x2="44.6352" y2="48.0902" gradientUnits="userSpaceOnUse">
<stop stop-color="#69BB66"/>
<stop offset="1" stop-color="#BFDAB8"/>
</linearGradient>
<linearGradient id="paint7_linear_12864_666" x1="36.1007" y1="40.5447" x2="19.3523" y2="56.4806" gradientUnits="userSpaceOnUse">
<stop stop-color="#69BB66"/>
<stop offset="1" stop-color="#BFDAB8"/>
</linearGradient>
<linearGradient id="paint8_linear_12864_666" x1="50" y1="11.5" x2="50" y2="67.5" gradientUnits="userSpaceOnUse">
<stop stop-color="white"/>
<stop offset="1" stop-color="white"/>
</linearGradient>
<linearGradient id="paint9_linear_12864_666" x1="64.7346" y1="26.2061" x2="64.7346" y2="32.2061" gradientUnits="userSpaceOnUse">
<stop stop-color="#F9ECB9"/>
<stop offset="1" stop-color="#FFD968"/>
</linearGradient>
<linearGradient id="paint10_linear_12864_666" x1="67.2308" y1="43.5" x2="52.5482" y2="50.0928" gradientUnits="userSpaceOnUse">
<stop stop-color="#69BB66"/>
<stop offset="1" stop-color="#BFDAB8"/>
</linearGradient>
<linearGradient id="paint11_linear_12864_666" x1="47.4615" y1="39.9" x2="25.963" y2="48.4015" gradientUnits="userSpaceOnUse">
<stop stop-color="#69BB66"/>
<stop offset="1" stop-color="#BFDAB8"/>
</linearGradient>
<clipPath id="clip0_12864_666">
<rect x="42.7582" y="20.1113" width="52" height="26" rx="2" transform="rotate(14 42.7582 20.1113)" fill="white"/>
</clipPath>
<clipPath id="clip1_12864_666">
<rect x="8.20398" y="34.1279" width="52" height="26" rx="2" transform="rotate(-22 8.20398 34.1279)" fill="white"/>
</clipPath>
<clipPath id="clip2_12864_666">
<rect x="24" y="23.5" width="52" height="26" rx="2" fill="white"/>
</clipPath>
</defs>
</svg>
